<?xml version="1.0" encoding="UTF-8" standalone="no"?>
<!DOCTYPE svg PUBLIC "-//W3C//DTD SVG 1.1//EN"
 "http://www.w3.org/Graphics/SVG/1.1/DTD/svg11.dtd">
<!-- Generated by graphviz version 2.42.4 (0)
 -->
<!-- Title: DevilangCG_collapsed Pages: 1 -->
<svg width="456pt" height="638pt"
 viewBox="0.00 0.00 456.00 638.00" xmlns="http://www.w3.org/2000/svg" xmlns:xlink="http://www.w3.org/1999/xlink">
<g id="graph0" class="graph" transform="scale(1 1) rotate(0) translate(4 634)">
<title>DevilangCG_collapsed</title>
<polygon fill="white" stroke="transparent" points="-4,4 -4,-634 452,-634 452,4 -4,4"/>
<!-- diag_net_ops -->
<g id="node1" class="node">
<title>diag_net_ops</title>
<polygon fill="#ddeeff" stroke="steelblue" stroke-width="2" points="156,-360 47,-360 47,-324 156,-324 156,-360"/>
<text text-anchor="middle" x="101.5" y="-338.3" font-family="Times,serif" font-size="14.00" fill="steelblue">diag_net_ops</text>
</g>
<!-- netlink_rhashtable_params -->
<g id="node7" class="node">
<title>netlink_rhashtable_params</title>
<polygon fill="#ddeeff" stroke="steelblue" stroke-width="2" points="448,-198 239,-198 239,-162 448,-162 448,-198"/>
<text text-anchor="middle" x="343.5" y="-176.3" font-family="Times,serif" font-size="14.00" fill="steelblue">netlink_rhashtable_params</text>
</g>
<!-- diag_net_ops&#45;&gt;netlink_rhashtable_params -->
<g id="edge1" class="edge">
<title>diag_net_ops&#45;&gt;netlink_rhashtable_params</title>
<path fill="none" stroke="black" d="M156.11,-332.91C171.86,-328.86 188.7,-323.11 203,-315 252.58,-286.89 297.53,-237.01 322.33,-206.39"/>
<polygon fill="black" stroke="black" points="325.28,-208.3 328.78,-198.3 319.81,-203.94 325.28,-208.3"/>
</g>
<!-- genl_pernet_ops -->
<g id="node2" class="node">
<title>genl_pernet_ops</title>
<polygon fill="#ddeeff" stroke="steelblue" stroke-width="2" points="168,-306 35,-306 35,-270 168,-270 168,-306"/>
<text text-anchor="middle" x="101.5" y="-284.3" font-family="Times,serif" font-size="14.00" fill="steelblue">genl_pernet_ops</text>
</g>
<!-- genl_pernet_ops&#45;&gt;netlink_rhashtable_params -->
<g id="edge2" class="edge">
<title>genl_pernet_ops&#45;&gt;netlink_rhashtable_params</title>
<path fill="none" stroke="black" d="M168.21,-273.03C179.98,-269.59 191.99,-265.58 203,-261 240.56,-245.37 280.42,-221.4 307.87,-203.58"/>
<polygon fill="black" stroke="black" points="309.88,-206.44 316.32,-198.03 306.04,-200.59 309.88,-206.44"/>
</g>
<!-- sk_filter_verifier_ops -->
<g id="node3" class="node">
<title>sk_filter_verifier_ops</title>
<polygon fill="#ddeeff" stroke="steelblue" stroke-width="2" points="425.5,-414 261.5,-414 261.5,-378 425.5,-378 425.5,-414"/>
<text text-anchor="middle" x="343.5" y="-392.3" font-family="Times,serif" font-size="14.00" fill="steelblue">sk_filter_verifier_ops</text>
</g>
<!-- lwt_xmit_verifier_ops -->
<g id="node4" class="node">
<title>lwt_xmit_verifier_ops</title>
<polygon fill="#ddeeff" stroke="steelblue" stroke-width="2" points="185.5,-576 17.5,-576 17.5,-540 185.5,-540 185.5,-576"/>
<text text-anchor="middle" x="101.5" y="-554.3" font-family="Times,serif" font-size="14.00" fill="steelblue">lwt_xmit_verifier_ops</text>
</g>
<!-- lwt_out_verifier_ops -->
<g id="node13" class="node">
<title>lwt_out_verifier_ops</title>
<polygon fill="#ddeeff" stroke="steelblue" stroke-width="2" points="423,-522 264,-522 264,-486 423,-486 423,-522"/>
<text text-anchor="middle" x="343.5" y="-500.3" font-family="Times,serif" font-size="14.00" fill="steelblue">lwt_out_verifier_ops</text>
</g>
<!-- lwt_xmit_verifier_ops&#45;&gt;lwt_out_verifier_ops -->
<g id="edge3" class="edge">
<title>lwt_xmit_verifier_ops&#45;&gt;lwt_out_verifier_ops</title>
<path fill="none" stroke="black" d="M182.75,-539.94C205.64,-534.79 230.71,-529.15 254.06,-523.9"/>
<polygon fill="black" stroke="black" points="254.97,-527.28 263.96,-521.67 253.43,-520.45 254.97,-527.28"/>
</g>
<!-- virtio_bus -->
<g id="node5" class="node">
<title>virtio_bus</title>
<polygon fill="#ddeeff" stroke="steelblue" stroke-width="2" points="387,-630 300,-630 300,-594 387,-594 387,-630"/>
<text text-anchor="middle" x="343.5" y="-608.3" font-family="Times,serif" font-size="14.00" fill="steelblue">virtio_bus</text>
</g>
<!-- lwt_in_verifier_ops -->
<g id="node6" class="node">
<title>lwt_in_verifier_ops</title>
<polygon fill="#ddeeff" stroke="steelblue" stroke-width="2" points="176,-522 27,-522 27,-486 176,-486 176,-522"/>
<text text-anchor="middle" x="101.5" y="-500.3" font-family="Times,serif" font-size="14.00" fill="steelblue">lwt_in_verifier_ops</text>
</g>
<!-- lwt_in_verifier_ops&#45;&gt;lwt_out_verifier_ops -->
<g id="edge4" class="edge">
<title>lwt_in_verifier_ops&#45;&gt;lwt_out_verifier_ops</title>
<path fill="none" stroke="black" d="M176.14,-504C200.59,-504 228.07,-504 253.55,-504"/>
<polygon fill="black" stroke="black" points="253.58,-507.5 263.58,-504 253.58,-500.5 253.58,-507.5"/>
</g>
<!-- netlink_ops -->
<g id="node8" class="node">
<title>netlink_ops</title>
<polygon fill="#ddeeff" stroke="steelblue" stroke-width="2" points="150.5,-252 52.5,-252 52.5,-216 150.5,-216 150.5,-252"/>
<text text-anchor="middle" x="101.5" y="-230.3" font-family="Times,serif" font-size="14.00" fill="steelblue">netlink_ops</text>
</g>
<!-- netlink_ops&#45;&gt;netlink_rhashtable_params -->
<g id="edge5" class="edge">
<title>netlink_ops&#45;&gt;netlink_rhashtable_params</title>
<path fill="none" stroke="black" d="M150.78,-223.14C179.81,-216.61 217.68,-208.08 252.09,-200.34"/>
<polygon fill="black" stroke="black" points="253.18,-203.68 262.17,-198.07 251.64,-196.86 253.18,-203.68"/>
</g>
<!-- rtnetlink_net_ops -->
<g id="node9" class="node">
<title>rtnetlink_net_ops</title>
<polygon fill="#ddeeff" stroke="steelblue" stroke-width="2" points="171.5,-198 31.5,-198 31.5,-162 171.5,-162 171.5,-198"/>
<text text-anchor="middle" x="101.5" y="-176.3" font-family="Times,serif" font-size="14.00" fill="steelblue">rtnetlink_net_ops</text>
</g>
<!-- rtnetlink_net_ops&#45;&gt;netlink_rhashtable_params -->
<g id="edge6" class="edge">
<title>rtnetlink_net_ops&#45;&gt;netlink_rhashtable_params</title>
<path fill="none" stroke="black" d="M171.6,-180C189.4,-180 209.04,-180 228.48,-180"/>
<polygon fill="black" stroke="black" points="228.61,-183.5 238.61,-180 228.61,-176.5 228.61,-183.5"/>
</g>
<!-- virtio_net_driver -->
<g id="node10" class="node">
<title>virtio_net_driver</title>
<polygon fill="#ddeeff" stroke="steelblue" stroke-width="2" points="169,-144 34,-144 34,-108 169,-108 169,-144"/>
<text text-anchor="middle" x="101.5" y="-122.3" font-family="Times,serif" font-size="14.00" fill="steelblue">virtio_net_driver</text>
</g>
<!-- virtio_net_driver&#45;&gt;netlink_rhashtable_params -->
<g id="edge7" class="edge">
<title>virtio_net_driver&#45;&gt;netlink_rhashtable_params</title>
<path fill="none" stroke="black" d="M169.03,-140.97C194.73,-146.75 224.54,-153.46 252.13,-159.67"/>
<polygon fill="black" stroke="black" points="251.65,-163.15 262.18,-161.93 253.19,-156.32 251.65,-163.15"/>
</g>
<!-- virtnet_ethtool_ops -->
<g id="node11" class="node">
<title>virtnet_ethtool_ops</title>
<polygon fill="#ddeeff" stroke="steelblue" stroke-width="2" points="178.5,-90 24.5,-90 24.5,-54 178.5,-54 178.5,-90"/>
<text text-anchor="middle" x="101.5" y="-68.3" font-family="Times,serif" font-size="14.00" fill="steelblue">virtnet_ethtool_ops</text>
</g>
<!-- virtnet_ethtool_ops&#45;&gt;netlink_rhashtable_params -->
<g id="edge8" class="edge">
<title>virtnet_ethtool_ops&#45;&gt;netlink_rhashtable_params</title>
<path fill="none" stroke="black" d="M178.41,-90.08C186.81,-92.76 195.16,-95.74 203,-99 240.56,-114.63 280.42,-138.6 307.87,-156.42"/>
<polygon fill="black" stroke="black" points="306.04,-159.41 316.32,-161.97 309.88,-153.56 306.04,-159.41"/>
</g>
<!-- cg_skb_verifier_ops -->
<g id="node12" class="node">
<title>cg_skb_verifier_ops</title>
<polygon fill="#ddeeff" stroke="steelblue" stroke-width="2" points="179,-414 24,-414 24,-378 179,-378 179,-414"/>
<text text-anchor="middle" x="101.5" y="-392.3" font-family="Times,serif" font-size="14.00" fill="steelblue">cg_skb_verifier_ops</text>
</g>
<!-- cg_skb_verifier_ops&#45;&gt;sk_filter_verifier_ops -->
<g id="edge9" class="edge">
<title>cg_skb_verifier_ops&#45;&gt;sk_filter_verifier_ops</title>
<path fill="none" stroke="black" d="M179.1,-396C202.02,-396 227.39,-396 251.17,-396"/>
<polygon fill="black" stroke="black" points="251.25,-399.5 261.25,-396 251.25,-392.5 251.25,-399.5"/>
</g>
<!-- lwt_seg6local_verifier_ops -->
<g id="node14" class="node">
<title>lwt_seg6local_verifier_ops</title>
<polygon fill="#ddeeff" stroke="steelblue" stroke-width="2" points="203,-468 0,-468 0,-432 203,-432 203,-468"/>
<text text-anchor="middle" x="101.5" y="-446.3" font-family="Times,serif" font-size="14.00" fill="steelblue">lwt_seg6local_verifier_ops</text>
</g>
<!-- lwt_seg6local_verifier_ops&#45;&gt;lwt_out_verifier_ops -->
<g id="edge10" class="edge">
<title>lwt_seg6local_verifier_ops&#45;&gt;lwt_out_verifier_ops</title>
<path fill="none" stroke="black" d="M182.75,-468.06C205.64,-473.21 230.71,-478.85 254.06,-484.1"/>
<polygon fill="black" stroke="black" points="253.43,-487.55 263.96,-486.33 254.97,-480.72 253.43,-487.55"/>
</g>
<!-- cfg -->
<g id="node15" class="node">
<title>cfg</title>
<polygon fill="#ddeeff" stroke="steelblue" stroke-width="2" points="128.5,-36 74.5,-36 74.5,0 128.5,0 128.5,-36"/>
<text text-anchor="middle" x="101.5" y="-14.3" font-family="Times,serif" font-size="14.00" fill="steelblue">cfg</text>
</g>
<!-- cfg&#45;&gt;netlink_rhashtable_params -->
<g id="edge11" class="edge">
<title>cfg&#45;&gt;netlink_rhashtable_params</title>
<path fill="none" stroke="black" d="M128.65,-21.32C149.78,-24.85 179.74,-31.81 203,-45 252.58,-73.11 297.53,-122.99 322.33,-153.61"/>
<polygon fill="black" stroke="black" points="319.81,-156.06 328.78,-161.7 325.28,-151.7 319.81,-156.06"/>
</g>
<!-- virtio_mmio_driver -->
<g id="node16" class="node">
<title>virtio_mmio_driver</title>
<polygon fill="#ddeeff" stroke="steelblue" stroke-width="2" points="177.5,-630 25.5,-630 25.5,-594 177.5,-594 177.5,-630"/>
<text text-anchor="middle" x="101.5" y="-608.3" font-family="Times,serif" font-size="14.00" fill="steelblue">virtio_mmio_driver</text>
</g>
<!-- virtio_mmio_driver&#45;&gt;virtio_bus -->
<g id="edge12" class="edge">
<title>virtio_mmio_driver&#45;&gt;virtio_bus</title>
<path fill="none" stroke="black" d="M177.78,-612C214.12,-612 256.86,-612 289.69,-612"/>
<polygon fill="black" stroke="black" points="289.98,-615.5 299.98,-612 289.98,-608.5 289.98,-615.5"/>
</g>
</g>
</svg>
